<svg width="1280" height="720" viewBox="0 0 1280 720" fill="none" xmlns="http://www.w3.org/2000/svg">
<g clip-path="url(#clip0_15_2)">
<rect width="1280" height="720" fill="white"/>
<rect x="1280" y="746" width="1294" height="789" transform="rotate(-180 1280 746)" fill="url(#paint0_linear_15_2)"/>
<g filter="url(#filter0_di_15_2)">
<rect x="15" width="1253" height="704" fill="url(#paint1_linear_15_2)" fill-opacity="0.73" shape-rendering="crispEdges"/>
</g>
<g filter="url(#filter1_d_15_2)">
<rect x="15" y="51" width="732" height="653" fill="url(#paint2_linear_15_2)"/>
</g>
<g filter="url(#filter2_d_15_2)">
<rect x="764" y="51" width="504" height="653" fill="url(#paint3_linear_15_2)"/>
</g>
<g filter="url(#filter3_d_15_2)">
<path d="M15 0H1268V51H15V0Z" fill="url(#paint4_linear_15_2)" shape-rendering="crispEdges"/>
</g>
<path d="M51.4132 682.628C51.3606 682.136 51.1389 681.753 50.748 681.478C50.3609 681.204 49.8573 681.067 49.2372 681.067C48.8012 681.067 48.4273 681.133 48.1153 681.264C47.8034 681.396 47.5647 681.574 47.3994 681.8C47.234 682.025 47.1494 682.283 47.1457 682.572C47.1457 682.813 47.2002 683.021 47.3092 683.198C47.4219 683.374 47.5741 683.525 47.7658 683.649C47.9575 683.769 48.1698 683.871 48.4028 683.953C48.6358 684.036 48.8707 684.105 49.1075 684.162L50.1899 684.432C50.6259 684.534 51.0449 684.671 51.447 684.844C51.8529 685.017 52.2156 685.235 52.5351 685.498C52.8583 685.761 53.1138 686.079 53.3018 686.451C53.4897 686.823 53.5836 687.259 53.5836 687.758C53.5836 688.435 53.4107 689.031 53.065 689.546C52.7192 690.057 52.2194 690.457 51.5654 690.746C50.9152 691.032 50.1279 691.175 49.2033 691.175C48.3051 691.175 47.5253 691.036 46.8638 690.758C46.2061 690.479 45.6912 690.074 45.3192 689.54C44.9508 689.006 44.7517 688.356 44.7216 687.589H46.7793C46.8093 687.991 46.9333 688.326 47.1513 688.593C47.3693 688.86 47.6531 689.059 48.0026 689.19C48.3559 689.322 48.7505 689.388 49.1864 689.388C49.6412 689.388 50.0396 689.32 50.3816 689.185C50.7273 689.046 50.9979 688.854 51.1934 688.61C51.3888 688.362 51.4884 688.072 51.4921 687.742C51.4884 687.441 51.4001 687.193 51.2272 686.997C51.0543 686.798 50.8119 686.633 50.5 686.501C50.1918 686.366 49.831 686.246 49.4176 686.141L48.104 685.802C47.1532 685.558 46.4015 685.188 45.8491 684.692C45.3004 684.192 45.026 683.529 45.026 682.702C45.026 682.021 45.2102 681.426 45.5785 680.915C45.9506 680.404 46.456 680.007 47.0949 679.725C47.7339 679.44 48.4573 679.297 49.2654 679.297C50.0847 679.297 50.8025 679.44 51.4189 679.725C52.039 680.007 52.5257 680.4 52.879 680.903C53.2322 681.403 53.4145 681.978 53.4258 682.628H51.4132ZM55.358 691V682.341H57.3988V691H55.358ZM56.384 681.112C56.0608 681.112 55.7827 681.005 55.5497 680.791C55.3167 680.573 55.2002 680.311 55.2002 680.007C55.2002 679.699 55.3167 679.438 55.5497 679.223C55.7827 679.005 56.0608 678.896 56.384 678.896C56.711 678.896 56.9891 679.005 57.2184 679.223C57.4514 679.438 57.5679 679.699 57.5679 680.007C57.5679 680.311 57.4514 680.573 57.2184 680.791C56.9891 681.005 56.711 681.112 56.384 681.112ZM63.2631 694.428C62.5302 694.428 61.9007 694.328 61.3746 694.129C60.8484 693.933 60.4256 693.67 60.1061 693.34C59.7867 693.009 59.5649 692.642 59.4409 692.24L61.2787 691.795C61.3614 691.964 61.4817 692.131 61.6395 692.297C61.7974 692.466 62.0097 692.605 62.2765 692.714C62.5471 692.827 62.8873 692.883 63.2969 692.883C63.8757 692.883 64.3549 692.742 64.7345 692.46C65.1141 692.182 65.3038 691.723 65.3038 691.085V689.444H65.2024C65.0971 689.655 64.943 689.871 64.7401 690.092C64.5409 690.314 64.276 690.5 63.9452 690.65C63.6183 690.801 63.2067 690.876 62.7106 690.876C62.0454 690.876 61.4422 690.72 60.901 690.408C60.3636 690.092 59.9351 689.623 59.6157 688.999C59.3 688.371 59.1421 687.586 59.1421 686.642C59.1421 685.691 59.3 684.889 59.6157 684.235C59.9351 683.577 60.3655 683.079 60.9066 682.741C61.4478 682.399 62.051 682.228 62.7163 682.228C63.2236 682.228 63.6408 682.315 63.9678 682.487C64.2985 682.657 64.5616 682.861 64.757 683.102C64.9524 683.339 65.1009 683.562 65.2024 683.773H65.3151V682.341H67.3277V691.141C67.3277 691.881 67.151 692.494 66.7978 692.979C66.4445 693.464 65.9615 693.826 65.3489 694.067C64.7363 694.307 64.0411 694.428 63.2631 694.428ZM63.28 689.275C63.7122 689.275 64.0805 689.17 64.3849 688.959C64.6894 688.749 64.9205 688.446 65.0783 688.052C65.2362 687.657 65.3151 687.183 65.3151 686.631C65.3151 686.086 65.2362 685.609 65.0783 685.199C64.9243 684.789 64.695 684.472 64.3906 684.246C64.0899 684.017 63.7197 683.902 63.28 683.902C62.8253 683.902 62.4457 684.021 62.1412 684.258C61.8368 684.494 61.6076 684.819 61.4535 685.233C61.2994 685.643 61.2223 686.109 61.2223 686.631C61.2223 687.161 61.2994 687.625 61.4535 688.023C61.6113 688.418 61.8425 688.726 62.1469 688.948C62.4551 689.166 62.8328 689.275 63.28 689.275ZM71.9109 691.175C71.3622 691.175 70.868 691.077 70.4283 690.882C69.9923 690.682 69.6465 690.389 69.391 690.002C69.1392 689.615 69.0133 689.138 69.0133 688.57C69.0133 688.082 69.1035 687.678 69.2839 687.358C69.4643 687.039 69.7104 686.783 70.0224 686.592C70.3343 686.4 70.6857 686.255 71.0766 686.157C71.4712 686.056 71.879 685.983 72.2999 685.938C72.8073 685.885 73.2188 685.838 73.5345 685.797C73.8502 685.752 74.0794 685.684 74.2223 685.594C74.3688 685.5 74.4421 685.355 74.4421 685.16V685.126C74.4421 684.701 74.3162 684.372 74.0644 684.139C73.8126 683.906 73.4499 683.79 72.9764 683.79C72.4765 683.79 72.08 683.899 71.7869 684.117C71.4975 684.335 71.3021 684.592 71.2006 684.889L69.2951 684.618C69.4455 684.092 69.6935 683.653 70.0393 683.299C70.385 682.942 70.8079 682.675 71.3077 682.499C71.8076 682.318 72.36 682.228 72.9651 682.228C73.3823 682.228 73.7976 682.277 74.211 682.375C74.6244 682.472 75.0021 682.634 75.3441 682.86C75.6861 683.081 75.9605 683.384 76.1672 683.767C76.3776 684.151 76.4829 684.63 76.4829 685.205V691H74.521V689.811H74.4534C74.3294 690.051 74.1546 690.277 73.9291 690.487C73.7074 690.694 73.4274 690.861 73.0891 690.989C72.7546 691.113 72.3619 691.175 71.9109 691.175ZM72.4408 689.675C72.8505 689.675 73.2056 689.594 73.5063 689.433C73.807 689.267 74.0381 689.049 74.1997 688.779C74.3651 688.508 74.4478 688.213 74.4478 687.894V686.873C74.3839 686.926 74.2749 686.975 74.1208 687.02C73.9705 687.065 73.8013 687.105 73.6134 687.138C73.4255 687.172 73.2395 687.202 73.0553 687.229C72.8712 687.255 72.7114 687.277 72.5761 687.296C72.2717 687.338 71.9992 687.405 71.7587 687.499C71.5182 687.593 71.3284 687.725 71.1893 687.894C71.0503 688.059 70.9807 688.273 70.9807 688.536C70.9807 688.912 71.1179 689.196 71.3923 689.388C71.6666 689.579 72.0161 689.675 72.4408 689.675ZM84.9644 691.175C84.4157 691.175 83.9215 691.077 83.4817 690.882C83.0458 690.682 82.7 690.389 82.4444 690.002C82.1926 689.615 82.0667 689.138 82.0667 688.57C82.0667 688.082 82.1569 687.678 82.3373 687.358C82.5177 687.039 82.7639 686.783 83.0758 686.592C83.3878 686.4 83.7392 686.255 84.13 686.157C84.5247 686.056 84.9324 685.983 85.3534 685.938C85.8607 685.885 86.2723 685.838 86.588 685.797C86.9037 685.752 87.1329 685.684 87.2757 685.594C87.4223 685.5 87.4956 685.355 87.4956 685.16V685.126C87.4956 684.701 87.3697 684.372 87.1179 684.139C86.8661 683.906 86.5034 683.79 86.0299 683.79C85.53 683.79 85.1335 683.899 84.8404 684.117C84.551 684.335 84.3555 684.592 84.2541 684.889L82.3486 684.618C82.4989 684.092 82.747 683.653 83.0928 683.299C83.4385 682.942 83.8613 682.675 84.3612 682.499C84.861 682.318 85.4135 682.228 86.0186 682.228C86.4357 682.228 86.851 682.277 87.2644 682.375C87.6779 682.472 88.0556 682.634 88.3976 682.86C88.7396 683.081 89.0139 683.384 89.2206 683.767C89.4311 684.151 89.5363 684.63 89.5363 685.205V691H87.5745V689.811H87.5069C87.3828 690.051 87.2081 690.277 86.9826 690.487C86.7608 690.694 86.4808 690.861 86.1426 690.989C85.8081 691.113 85.4154 691.175 84.9644 691.175ZM85.4943 689.675C85.9039 689.675 86.2591 689.594 86.5598 689.433C86.8604 689.267 87.0916 689.049 87.2532 688.779C87.4185 688.508 87.5012 688.213 87.5012 687.894V686.873C87.4373 686.926 87.3283 686.975 87.1742 687.02C87.0239 687.065 86.8548 687.105 86.6669 687.138C86.479 687.172 86.2929 687.202 86.1088 687.229C85.9246 687.255 85.7649 687.277 85.6296 687.296C85.3252 687.338 85.0527 687.405 84.8122 687.499C84.5716 687.593 84.3818 687.725 84.2428 687.894C84.1037 688.059 84.0342 688.273 84.0342 688.536C84.0342 688.912 84.1714 689.196 84.4457 689.388C84.7201 689.579 85.0696 689.675 85.4943 689.675ZM95.6163 691V679.455H99.9458C100.833 679.455 101.577 679.62 102.178 679.951C102.783 680.281 103.24 680.736 103.548 681.315C103.86 681.89 104.016 682.544 104.016 683.277C104.016 684.017 103.86 684.675 103.548 685.25C103.236 685.825 102.776 686.278 102.167 686.608C101.558 686.935 100.808 687.099 99.9177 687.099H97.0482V685.379H99.6358C100.154 685.379 100.579 685.289 100.91 685.109C101.241 684.928 101.485 684.68 101.643 684.365C101.804 684.049 101.885 683.686 101.885 683.277C101.885 682.867 101.804 682.506 101.643 682.194C101.485 681.882 101.239 681.64 100.904 681.467C100.573 681.29 100.147 681.202 99.6245 681.202H97.7078V691H95.6163ZM105.833 691V679.455H110.252C111.087 679.455 111.78 679.586 112.333 679.849C112.889 680.108 113.304 680.464 113.579 680.915C113.857 681.366 113.996 681.877 113.996 682.448C113.996 682.918 113.906 683.32 113.725 683.654C113.545 683.985 113.302 684.254 112.998 684.461C112.693 684.667 112.353 684.816 111.978 684.906V685.019C112.387 685.041 112.78 685.167 113.156 685.396C113.535 685.622 113.845 685.941 114.086 686.355C114.326 686.768 114.447 687.268 114.447 687.854C114.447 688.452 114.302 688.989 114.013 689.467C113.723 689.94 113.287 690.314 112.705 690.588C112.122 690.863 111.389 691 110.506 691H105.833ZM107.924 689.252H110.174C110.933 689.252 111.48 689.108 111.814 688.818C112.152 688.525 112.321 688.149 112.321 687.691C112.321 687.349 112.237 687.041 112.068 686.766C111.899 686.488 111.658 686.27 111.346 686.112C111.034 685.951 110.662 685.87 110.23 685.87H107.924V689.252ZM107.924 684.365H109.993C110.354 684.365 110.679 684.299 110.968 684.167C111.258 684.032 111.485 683.842 111.651 683.598C111.82 683.35 111.904 683.057 111.904 682.719C111.904 682.271 111.746 681.903 111.431 681.614C111.119 681.324 110.655 681.18 110.038 681.18H107.924V684.365ZM118.358 679.455V691H116.266V679.455H118.358ZM124.56 679.455H127.12L130.547 687.82H130.683L134.11 679.455H136.669V691H134.663V683.068H134.555L131.365 690.966H129.865L126.674 683.051H126.567V691H124.56V679.455ZM141.038 679.455V691H138.947V679.455H141.038ZM152.791 679.455V691H150.931L145.491 683.136H145.395V691H143.303V679.455H145.175L150.609 687.324H150.711V679.455H152.791ZM155.07 691V679.455H162.579V681.208H157.162V684.342H162.19V686.095H157.162V689.247H162.624V691H155.07ZM164.713 691V679.455H169.042C169.929 679.455 170.673 679.609 171.275 679.917C171.88 680.225 172.337 680.657 172.645 681.213C172.957 681.766 173.113 682.41 173.113 683.147C173.113 683.887 172.955 684.53 172.639 685.075C172.327 685.616 171.867 686.035 171.258 686.332C170.649 686.625 169.901 686.772 169.014 686.772H165.931V685.036H168.732C169.251 685.036 169.676 684.964 170.006 684.821C170.337 684.675 170.581 684.462 170.739 684.184C170.901 683.902 170.982 683.557 170.982 683.147C170.982 682.737 170.901 682.388 170.739 682.098C170.578 681.805 170.331 681.584 170.001 681.433C169.67 681.279 169.243 681.202 168.721 681.202H166.804V691H164.713ZM170.677 685.768L173.535 691H171.202L168.394 685.768H170.677ZM177.129 679.455V691H175.038V679.455H177.129ZM180.877 691H178.644L182.709 679.455H185.291L189.361 691H187.129L184.045 681.822H183.955L180.877 691ZM180.95 686.473H187.038V688.153H180.95V686.473ZM194.729 694.247V682.341H196.736V683.773H196.855C196.96 683.562 197.108 683.339 197.3 683.102C197.492 682.861 197.751 682.657 198.078 682.487C198.405 682.315 198.822 682.228 199.329 682.228C199.998 682.228 200.602 682.399 201.139 682.741C201.68 683.079 202.109 683.581 202.424 684.246C202.744 684.908 202.904 685.72 202.904 686.682C202.904 687.633 202.748 688.441 202.436 689.106C202.124 689.771 201.699 690.278 201.162 690.628C200.624 690.977 200.015 691.152 199.335 691.152C198.839 691.152 198.428 691.07 198.101 690.904C197.774 690.739 197.51 690.54 197.311 690.307C197.116 690.07 196.964 689.846 196.855 689.636H196.77V694.247H194.729ZM196.731 686.67C196.731 687.23 196.81 687.721 196.967 688.142C197.129 688.563 197.36 688.892 197.661 689.128C197.965 689.361 198.334 689.478 198.766 689.478C199.217 689.478 199.594 689.358 199.899 689.117C200.203 688.873 200.433 688.54 200.587 688.119C200.744 687.695 200.823 687.212 200.823 686.67C200.823 686.133 200.746 685.656 200.592 685.239C200.438 684.821 200.209 684.494 199.905 684.258C199.6 684.021 199.22 683.902 198.766 683.902C198.33 683.902 197.96 684.017 197.655 684.246C197.351 684.476 197.12 684.797 196.962 685.21C196.808 685.624 196.731 686.11 196.731 686.67ZM207.143 691.175C206.594 691.175 206.1 691.077 205.66 690.882C205.224 690.682 204.879 690.389 204.623 690.002C204.371 689.615 204.245 689.138 204.245 688.57C204.245 688.082 204.336 687.678 204.516 687.358C204.696 687.039 204.942 686.783 205.254 686.592C205.566 686.4 205.918 686.255 206.309 686.157C206.703 686.056 207.111 685.983 207.532 685.938C208.039 685.885 208.451 685.838 208.767 685.797C209.082 685.752 209.311 685.684 209.454 685.594C209.601 685.5 209.674 685.355 209.674 685.16V685.126C209.674 684.701 209.548 684.372 209.296 684.139C209.045 683.906 208.682 683.79 208.208 683.79C207.709 683.79 207.312 683.899 207.019 684.117C206.73 684.335 206.534 684.592 206.433 684.889L204.527 684.618C204.678 684.092 204.926 683.653 205.271 683.299C205.617 682.942 206.04 682.675 206.54 682.499C207.04 682.318 207.592 682.228 208.197 682.228C208.614 682.228 209.03 682.277 209.443 682.375C209.856 682.472 210.234 682.634 210.576 682.86C210.918 683.081 211.193 683.384 211.399 683.767C211.61 684.151 211.715 684.63 211.715 685.205V691H209.753V689.811H209.685C209.561 690.051 209.387 690.277 209.161 690.487C208.939 690.694 208.659 690.861 208.321 690.989C207.987 691.113 207.594 691.175 207.143 691.175ZM207.673 689.675C208.083 689.675 208.438 689.594 208.738 689.433C209.039 689.267 209.27 689.049 209.432 688.779C209.597 688.508 209.68 688.213 209.68 687.894V686.873C209.616 686.926 209.507 686.975 209.353 687.02C209.203 687.065 209.033 687.105 208.845 687.138C208.658 687.172 208.472 687.202 208.287 687.229C208.103 687.255 207.943 687.277 207.808 687.296C207.504 687.338 207.231 687.405 206.991 687.499C206.75 687.593 206.56 687.725 206.421 687.894C206.282 688.059 206.213 688.273 206.213 688.536C206.213 688.912 206.35 689.196 206.624 689.388C206.899 689.579 207.248 689.675 207.673 689.675ZM213.767 691V682.341H215.746V683.784H215.836C215.994 683.284 216.264 682.899 216.648 682.628C217.035 682.354 217.476 682.217 217.972 682.217C218.085 682.217 218.211 682.223 218.35 682.234C218.493 682.241 218.611 682.254 218.705 682.273V684.151C218.619 684.12 218.482 684.094 218.294 684.072C218.11 684.045 217.931 684.032 217.758 684.032C217.386 684.032 217.052 684.113 216.755 684.275C216.462 684.432 216.231 684.652 216.061 684.934C215.892 685.216 215.808 685.541 215.808 685.909V691H213.767ZM222.398 691.175C221.849 691.175 221.355 691.077 220.915 690.882C220.479 690.682 220.133 690.389 219.878 690.002C219.626 689.615 219.5 689.138 219.5 688.57C219.5 688.082 219.59 687.678 219.771 687.358C219.951 687.039 220.197 686.783 220.509 686.592C220.821 686.4 221.173 686.255 221.564 686.157C221.958 686.056 222.366 685.983 222.787 685.938C223.294 685.885 223.706 685.838 224.021 685.797C224.337 685.752 224.566 685.684 224.709 685.594C224.856 685.5 224.929 685.355 224.929 685.16V685.126C224.929 684.701 224.803 684.372 224.551 684.139C224.3 683.906 223.937 683.79 223.463 683.79C222.963 683.79 222.567 683.899 222.274 684.117C221.984 684.335 221.789 684.592 221.688 684.889L219.782 684.618C219.932 684.092 220.18 683.653 220.526 683.299C220.872 682.942 221.295 682.675 221.795 682.499C222.294 682.318 222.847 682.228 223.452 682.228C223.869 682.228 224.285 682.277 224.698 682.375C225.111 682.472 225.489 682.634 225.831 682.86C226.173 683.081 226.447 683.384 226.654 683.767C226.865 684.151 226.97 684.63 226.97 685.205V691H225.008V689.811H224.94C224.816 690.051 224.642 690.277 224.416 690.487C224.194 690.694 223.914 690.861 223.576 690.989C223.242 691.113 222.849 691.175 222.398 691.175ZM222.928 689.675C223.337 689.675 223.693 689.594 223.993 689.433C224.294 689.267 224.525 689.049 224.687 688.779C224.852 688.508 224.935 688.213 224.935 687.894V686.873C224.871 686.926 224.762 686.975 224.608 687.02C224.457 687.065 224.288 687.105 224.1 687.138C223.912 687.172 223.726 687.202 223.542 687.229C223.358 687.255 223.198 687.277 223.063 687.296C222.759 687.338 222.486 687.405 222.246 687.499C222.005 687.593 221.815 687.725 221.676 687.894C221.537 688.059 221.468 688.273 221.468 688.536C221.468 688.912 221.605 689.196 221.879 689.388C222.154 689.579 222.503 689.675 222.928 689.675ZM236.793 691.169C235.925 691.169 235.175 690.989 234.544 690.628C233.916 690.263 233.433 689.748 233.095 689.083C232.757 688.414 232.588 687.627 232.588 686.721C232.588 685.83 232.757 685.049 233.095 684.376C233.437 683.7 233.914 683.173 234.527 682.798C235.139 682.418 235.859 682.228 236.686 682.228C237.22 682.228 237.723 682.315 238.197 682.487C238.674 682.657 239.095 682.92 239.46 683.277C239.828 683.634 240.117 684.089 240.328 684.641C240.538 685.19 240.643 685.844 240.643 686.603V687.229H233.546V685.853H238.687C238.683 685.462 238.599 685.115 238.434 684.81C238.268 684.502 238.037 684.26 237.74 684.083C237.447 683.906 237.105 683.818 236.714 683.818C236.297 683.818 235.93 683.919 235.615 684.122C235.299 684.322 235.053 684.585 234.876 684.912C234.703 685.235 234.615 685.59 234.611 685.977V687.178C234.611 687.681 234.703 688.114 234.888 688.474C235.072 688.831 235.329 689.106 235.66 689.297C235.991 689.485 236.378 689.579 236.821 689.579C237.118 689.579 237.387 689.538 237.627 689.455C237.868 689.369 238.076 689.243 238.253 689.078C238.43 688.912 238.563 688.707 238.653 688.463L240.559 688.677C240.439 689.181 240.209 689.621 239.871 689.997C239.537 690.369 239.108 690.658 238.586 690.865C238.063 691.068 237.466 691.169 236.793 691.169ZM249.214 684.63L247.353 684.833C247.301 684.645 247.209 684.468 247.077 684.303C246.949 684.137 246.776 684.004 246.558 683.902C246.34 683.801 246.074 683.75 245.758 683.75C245.333 683.75 244.976 683.842 244.687 684.026C244.401 684.211 244.26 684.449 244.264 684.742C244.26 684.994 244.352 685.199 244.54 685.357C244.732 685.515 245.048 685.644 245.487 685.746L246.964 686.062C247.784 686.238 248.393 686.518 248.791 686.902C249.193 687.285 249.396 687.787 249.4 688.407C249.396 688.952 249.236 689.433 248.921 689.85C248.609 690.263 248.175 690.587 247.618 690.82C247.062 691.053 246.423 691.169 245.702 691.169C244.642 691.169 243.789 690.947 243.142 690.504C242.496 690.057 242.111 689.435 241.987 688.638L243.977 688.446C244.067 688.837 244.258 689.132 244.552 689.331C244.845 689.531 245.226 689.63 245.696 689.63C246.181 689.63 246.57 689.531 246.863 689.331C247.16 689.132 247.308 688.886 247.308 688.593C247.308 688.345 247.212 688.14 247.021 687.978C246.833 687.817 246.54 687.693 246.141 687.606L244.664 687.296C243.834 687.123 243.219 686.832 242.821 686.422C242.422 686.009 242.225 685.487 242.229 684.855C242.225 684.322 242.37 683.859 242.663 683.468C242.96 683.074 243.371 682.769 243.898 682.555C244.428 682.337 245.038 682.228 245.73 682.228C246.744 682.228 247.543 682.444 248.126 682.876C248.712 683.309 249.075 683.893 249.214 684.63ZM255.406 682.341V683.919H250.429V682.341H255.406ZM251.658 680.266H253.698V688.396C253.698 688.67 253.74 688.88 253.822 689.027C253.909 689.17 254.021 689.267 254.161 689.32C254.3 689.373 254.454 689.399 254.623 689.399C254.751 689.399 254.867 689.39 254.972 689.371C255.081 689.352 255.164 689.335 255.22 689.32L255.564 690.915C255.455 690.953 255.299 690.994 255.096 691.039C254.897 691.085 254.653 691.111 254.363 691.118C253.852 691.133 253.392 691.056 252.982 690.887C252.573 690.714 252.248 690.448 252.007 690.087C251.77 689.726 251.654 689.275 251.658 688.734V680.266ZM259.605 691.175C259.056 691.175 258.562 691.077 258.122 690.882C257.686 690.682 257.341 690.389 257.085 690.002C256.833 689.615 256.707 689.138 256.707 688.57C256.707 688.082 256.797 687.678 256.978 687.358C257.158 687.039 257.404 686.783 257.716 686.592C258.028 686.4 258.38 686.255 258.771 686.157C259.165 686.056 259.573 685.983 259.994 685.938C260.501 685.885 260.913 685.838 261.228 685.797C261.544 685.752 261.773 685.684 261.916 685.594C262.063 685.5 262.136 685.355 262.136 685.16V685.126C262.136 684.701 262.01 684.372 261.758 684.139C261.507 683.906 261.144 683.79 260.67 683.79C260.171 683.79 259.774 683.899 259.481 684.117C259.191 684.335 258.996 684.592 258.895 684.889L256.989 684.618C257.139 684.092 257.387 683.653 257.733 683.299C258.079 682.942 258.502 682.675 259.002 682.499C259.502 682.318 260.054 682.228 260.659 682.228C261.076 682.228 261.492 682.277 261.905 682.375C262.318 682.472 262.696 682.634 263.038 682.86C263.38 683.081 263.654 683.384 263.861 683.767C264.072 684.151 264.177 684.63 264.177 685.205V691H262.215V689.811H262.147C262.023 690.051 261.849 690.277 261.623 690.487C261.401 690.694 261.121 690.861 260.783 690.989C260.449 691.113 260.056 691.175 259.605 691.175ZM260.135 689.675C260.544 689.675 260.9 689.594 261.2 689.433C261.501 689.267 261.732 689.049 261.894 688.779C262.059 688.508 262.142 688.213 262.142 687.894V686.873C262.078 686.926 261.969 686.975 261.815 687.02C261.664 687.065 261.495 687.105 261.307 687.138C261.119 687.172 260.933 687.202 260.749 687.229C260.565 687.255 260.405 687.277 260.27 687.296C259.966 687.338 259.693 687.405 259.453 687.499C259.212 687.593 259.022 687.725 258.883 687.894C258.744 688.059 258.675 688.273 258.675 688.536C258.675 688.912 258.812 689.196 259.086 689.388C259.361 689.579 259.71 689.675 260.135 689.675ZM266.229 691V682.341H268.208V683.784H268.298C268.456 683.284 268.726 682.899 269.11 682.628C269.497 682.354 269.938 682.217 270.434 682.217C270.547 682.217 270.673 682.223 270.812 682.234C270.955 682.241 271.073 682.254 271.167 682.273V684.151C271.081 684.12 270.944 684.094 270.756 684.072C270.572 684.045 270.393 684.032 270.22 684.032C269.848 684.032 269.514 684.113 269.217 684.275C268.924 684.432 268.692 684.652 268.523 684.934C268.354 685.216 268.27 685.541 268.27 685.909V691H266.229ZM278.953 691.175C278.404 691.175 277.91 691.077 277.47 690.882C277.034 690.682 276.688 690.389 276.433 690.002C276.181 689.615 276.055 689.138 276.055 688.57C276.055 688.082 276.145 687.678 276.325 687.358C276.506 687.039 276.752 686.783 277.064 686.592C277.376 686.4 277.727 686.255 278.118 686.157C278.513 686.056 278.921 685.983 279.342 685.938C279.849 685.885 280.26 685.838 280.576 685.797C280.892 685.752 281.121 685.684 281.264 685.594C281.41 685.5 281.484 685.355 281.484 685.16V685.126C281.484 684.701 281.358 684.372 281.106 684.139C280.854 683.906 280.492 683.79 280.018 683.79C279.518 683.79 279.122 683.899 278.829 684.117C278.539 684.335 278.344 684.592 278.242 684.889L276.337 684.618C276.487 684.092 276.735 683.653 277.081 683.299C277.427 682.942 277.849 682.675 278.349 682.499C278.849 682.318 279.402 682.228 280.007 682.228C280.424 682.228 280.839 682.277 281.253 682.375C281.666 682.472 282.044 682.634 282.386 682.86C282.728 683.081 283.002 683.384 283.209 683.767C283.419 684.151 283.524 684.63 283.524 685.205V691H281.563V689.811H281.495C281.371 690.051 281.196 690.277 280.971 690.487C280.749 690.694 280.469 690.861 280.131 690.989C279.796 691.113 279.404 691.175 278.953 691.175ZM279.482 689.675C279.892 689.675 280.247 689.594 280.548 689.433C280.849 689.267 281.08 689.049 281.241 688.779C281.407 688.508 281.489 688.213 281.489 687.894V686.873C281.425 686.926 281.316 686.975 281.162 687.02C281.012 687.065 280.843 687.105 280.655 687.138C280.467 687.172 280.281 687.202 280.097 687.229C279.913 687.255 279.753 687.277 279.618 687.296C279.313 687.338 279.041 687.405 278.8 687.499C278.56 687.593 278.37 687.725 278.231 687.894C278.092 688.059 278.022 688.273 278.022 688.536C278.022 688.912 278.16 689.196 278.434 689.388C278.708 689.579 279.058 689.675 279.482 689.675ZM287.617 679.455V691H285.577V679.455H287.617ZM296.867 691.152C296.187 691.152 295.578 690.977 295.04 690.628C294.503 690.278 294.078 689.771 293.766 689.106C293.454 688.441 293.298 687.633 293.298 686.682C293.298 685.72 293.456 684.908 293.772 684.246C294.091 683.581 294.522 683.079 295.063 682.741C295.604 682.399 296.207 682.228 296.873 682.228C297.38 682.228 297.797 682.315 298.124 682.487C298.451 682.657 298.71 682.861 298.902 683.102C299.094 683.339 299.242 683.562 299.347 683.773H299.432V679.455H301.478V691H299.471V689.636H299.347C299.242 689.846 299.09 690.07 298.891 690.307C298.692 690.54 298.428 690.739 298.101 690.904C297.775 691.07 297.363 691.152 296.867 691.152ZM297.436 689.478C297.868 689.478 298.237 689.361 298.541 689.128C298.846 688.892 299.077 688.563 299.235 688.142C299.392 687.721 299.471 687.23 299.471 686.67C299.471 686.11 299.392 685.624 299.235 685.21C299.081 684.797 298.851 684.476 298.547 684.246C298.246 684.017 297.876 683.902 297.436 683.902C296.982 683.902 296.602 684.021 296.297 684.258C295.993 684.494 295.764 684.821 295.61 685.239C295.456 685.656 295.379 686.133 295.379 686.67C295.379 687.212 295.456 687.695 295.61 688.119C295.768 688.54 295.999 688.873 296.303 689.117C296.611 689.358 296.989 689.478 297.436 689.478ZM303.653 691V682.341H305.694V691H303.653ZM303.895 681.202L305.158 678.626H307.154L305.423 681.202H303.895ZM310.284 691.175C309.735 691.175 309.241 691.077 308.801 690.882C308.365 690.682 308.02 690.389 307.764 690.002C307.512 689.615 307.386 689.138 307.386 688.57C307.386 688.082 307.477 687.678 307.657 687.358C307.837 687.039 308.083 686.783 308.395 686.592C308.707 686.4 309.059 686.255 309.45 686.157C309.844 686.056 310.252 685.983 310.673 685.938C311.18 685.885 311.592 685.838 311.908 685.797C312.223 685.752 312.452 685.684 312.595 685.594C312.742 685.5 312.815 685.355 312.815 685.16V685.126C312.815 684.701 312.689 684.372 312.437 684.139C312.186 683.906 311.823 683.79 311.349 683.79C310.85 683.79 310.453 683.899 310.16 684.117C309.871 684.335 309.675 684.592 309.574 684.889L307.668 684.618C307.819 684.092 308.067 683.653 308.412 683.299C308.758 682.942 309.181 682.675 309.681 682.499C310.181 682.318 310.733 682.228 311.338 682.228C311.755 682.228 312.171 682.277 312.584 682.375C312.997 682.472 313.375 682.634 313.717 682.86C314.059 683.081 314.334 683.384 314.54 683.767C314.751 684.151 314.856 684.63 314.856 685.205V691H312.894V689.811H312.826C312.702 690.051 312.528 690.277 312.302 690.487C312.08 690.694 311.8 690.861 311.462 690.989C311.128 691.113 310.735 691.175 310.284 691.175ZM310.814 689.675C311.224 689.675 311.579 689.594 311.879 689.433C312.18 689.267 312.411 689.049 312.573 688.779C312.738 688.508 312.821 688.213 312.821 687.894V686.873C312.757 686.926 312.648 686.975 312.494 687.02C312.343 687.065 312.174 687.105 311.986 687.138C311.799 687.172 311.613 687.202 311.428 687.229C311.244 687.255 311.084 687.277 310.949 687.296C310.645 687.338 310.372 687.405 310.132 687.499C309.891 687.593 309.701 687.725 309.562 687.894C309.423 688.059 309.354 688.273 309.354 688.536C309.354 688.912 309.491 689.196 309.765 689.388C310.04 689.579 310.389 689.675 310.814 689.675Z" fill="#255C6B"/>
</g>
<defs>
<filter id="filter0_di_15_2" x="11" y="0" width="1261" height="712" filterUnits="userSpaceOnUse" color-interpolation-filters="sRGB">
<feFlood flood-opacity="0" result="BackgroundImageFix"/>
<feColorMatrix in="SourceAlpha" type="matrix" values="0 0 0 0 0 0 0 0 0 0 0 0 0 0 0 0 0 0 127 0" result="hardAlpha"/>
<feOffset dy="4"/>
<feGaussianBlur stdDeviation="2"/>
<feComposite in2="hardAlpha" operator="out"/>
<feColorMatrix type="matrix" values="0 0 0 0 0 0 0 0 0 0 0 0 0 0 0 0 0 0 0.25 0"/>
<feBlend mode="normal" in2="BackgroundImageFix" result="effect1_dropShadow_15_2"/>
<feBlend mode="normal" in="SourceGraphic" in2="effect1_dropShadow_15_2" result="shape"/>
<feColorMatrix in="SourceAlpha" type="matrix" values="0 0 0 0 0 0 0 0 0 0 0 0 0 0 0 0 0 0 127 0" result="hardAlpha"/>
<feOffset dy="4"/>
<feGaussianBlur stdDeviation="2"/>
<feComposite in2="hardAlpha" operator="arithmetic" k2="-1" k3="1"/>
<feColorMatrix type="matrix" values="0 0 0 0 0 0 0 0 0 0 0 0 0 0 0 0 0 0 0.25 0"/>
<feBlend mode="normal" in2="shape" result="effect2_innerShadow_15_2"/>
</filter>
<filter id="filter1_d_15_2" x="11" y="51" width="740" height="661" filterUnits="userSpaceOnUse" color-interpolation-filters="sRGB">
<feFlood flood-opacity="0" result="BackgroundImageFix"/>
<feColorMatrix in="SourceAlpha" type="matrix" values="0 0 0 0 0 0 0 0 0 0 0 0 0 0 0 0 0 0 127 0" result="hardAlpha"/>
<feOffset dy="4"/>
<feGaussianBlur stdDeviation="2"/>
<feComposite in2="hardAlpha" operator="out"/>
<feColorMatrix type="matrix" values="0 0 0 0 0 0 0 0 0 0 0 0 0 0 0 0 0 0 0.25 0"/>
<feBlend mode="normal" in2="BackgroundImageFix" result="effect1_dropShadow_15_2"/>
<feBlend mode="normal" in="SourceGraphic" in2="effect1_dropShadow_15_2" result="shape"/>
</filter>
<filter id="filter2_d_15_2" x="760" y="51" width="512" height="661" filterUnits="userSpaceOnUse" color-interpolation-filters="sRGB">
<feFlood flood-opacity="0" result="BackgroundImageFix"/>
<feColorMatrix in="SourceAlpha" type="matrix" values="0 0 0 0 0 0 0 0 0 0 0 0 0 0 0 0 0 0 127 0" result="hardAlpha"/>
<feOffset dy="4"/>
<feGaussianBlur stdDeviation="2"/>
<feComposite in2="hardAlpha" operator="out"/>
<feColorMatrix type="matrix" values="0 0 0 0 0 0 0 0 0 0 0 0 0 0 0 0 0 0 0.25 0"/>
<feBlend mode="normal" in2="BackgroundImageFix" result="effect1_dropShadow_15_2"/>
<feBlend mode="normal" in="SourceGraphic" in2="effect1_dropShadow_15_2" result="shape"/>
</filter>
<filter id="filter3_d_15_2" x="11" y="0" width="1261" height="59" filterUnits="userSpaceOnUse" color-interpolation-filters="sRGB">
<feFlood flood-opacity="0" result="BackgroundImageFix"/>
<feColorMatrix in="SourceAlpha" type="matrix" values="0 0 0 0 0 0 0 0 0 0 0 0 0 0 0 0 0 0 127 0" result="hardAlpha"/>
<feOffset dy="4"/>
<feGaussianBlur stdDeviation="2"/>
<feComposite in2="hardAlpha" operator="out"/>
<feColorMatrix type="matrix" values="0 0 0 0 0 0 0 0 0 0 0 0 0 0 0 0 0 0 0.25 0"/>
<feBlend mode="normal" in2="BackgroundImageFix" result="effect1_dropShadow_15_2"/>
<feBlend mode="normal" in="SourceGraphic" in2="effect1_dropShadow_15_2" result="shape"/>
</filter>
<linearGradient id="paint0_linear_15_2" x1="1927" y1="746" x2="1927" y2="1535" gradientUnits="userSpaceOnUse">
<stop stop-color="white"/>
<stop offset="1" stop-color="#ADB5BD"/>
</linearGradient>
<linearGradient id="paint1_linear_15_2" x1="641.5" y1="0" x2="641.5" y2="704" gradientUnits="userSpaceOnUse">
<stop stop-color="white"/>
<stop offset="0.674335" stop-color="white"/>
<stop offset="1" stop-color="white"/>
</linearGradient>
<linearGradient id="paint2_linear_15_2" x1="381" y1="51" x2="381" y2="704" gradientUnits="userSpaceOnUse">
<stop stop-color="#F6F6F6"/>
<stop offset="1" stop-color="white"/>
</linearGradient>
<linearGradient id="paint3_linear_15_2" x1="1016" y1="51" x2="1016" y2="704" gradientUnits="userSpaceOnUse">
<stop stop-color="#F5F5F5"/>
<stop offset="1" stop-color="white"/>
</linearGradient>
<linearGradient id="paint4_linear_15_2" x1="641.5" y1="5.5144e-05" x2="1268" y2="0.000111687" gradientUnits="userSpaceOnUse">
<stop stop-color="#255C6B"/>
<stop offset="1" stop-color="#255C6B" stop-opacity="0"/>
</linearGradient>
<clipPath id="clip0_15_2">
<rect width="1280" height="720" fill="white"/>
</clipPath>
</defs>
</svg>
